<svg width="129" height="37" viewBox="0 0 129 37" fill="none" xmlns="http://www.w3.org/2000/svg">
<g clip-path="url(#clip0)">
<path fill-rule="evenodd" clip-rule="evenodd" d="M21.054 0.549561V34.9794H8.81828V16.5287C8.39492 16.7746 7.97313 17.0029 7.55293 17.2131C6.1517 17.9209 4.44003 18.574 2.44384 19.1827L0.0146484 19.9236V9.1439L1.31866 8.72385C4.04316 7.8462 6.01822 6.83385 7.34892 5.74615C8.70289 4.63944 9.76505 3.27464 10.5402 1.62882L11.0485 0.549561H21.054ZM6.70845 15.5327C7.39988 15.1871 8.10312 14.7841 8.81828 14.3239C9.43625 13.9263 10.0632 13.4859 10.6989 13.0028V33.0988H19.1734V2.43017H12.2415C11.3503 4.32253 10.1161 5.91322 8.53912 7.20222C6.96213 8.49125 4.74752 9.59509 1.89526 10.5139V17.384C2.56117 17.1809 3.18803 16.9745 3.77587 16.765C4.89485 16.366 5.87237 15.9552 6.70845 15.5327ZM31.2355 4.60855L31.2397 4.60392C33.7838 1.79037 37.5243 0.549561 42.0759 0.549561C44.2388 0.549561 46.1552 0.816728 47.7485 1.43564C49.2396 2.00169 50.5349 2.77749 51.5752 3.79874C52.5161 4.7092 53.2849 5.7041 53.8543 6.78825C54.4226 7.83131 54.8564 9.01218 55.1736 10.3098C55.7742 12.714 56.0718 15.2107 56.0718 17.7953C56.0718 23.4021 55.1378 27.8955 52.9335 30.9163C50.5902 34.1274 46.6952 35.4937 41.8496 35.4937C39.1357 35.4937 36.7572 35.0644 34.8351 34.0697C32.965 33.1018 31.4425 31.6846 30.2742 29.8627C29.3779 28.49 28.7449 26.7331 28.3069 24.6893L28.3053 24.6817L28.3037 24.6741C27.8763 22.5959 27.6687 20.3344 27.6687 17.8982C27.6687 12.0564 28.6938 7.43841 31.2355 4.60855ZM31.8531 28.841C32.8541 30.4043 34.1362 31.5904 35.6995 32.3995C37.2627 33.2085 39.3128 33.613 41.8496 33.613C46.3749 33.613 49.5631 32.3446 51.4143 29.8077C53.2655 27.2709 54.1912 23.2668 54.1912 17.7953C54.1912 15.3545 53.9101 13.0096 53.3478 10.7607C53.0599 9.5814 52.6759 8.55294 52.1959 7.67529C51.7297 6.78398 51.0852 5.94065 50.2624 5.1453C49.4397 4.33625 48.3769 3.68489 47.0742 3.19123C45.7715 2.68386 44.1054 2.43017 42.0759 2.43017C37.8523 2.43017 34.7053 3.57519 32.6346 5.86523C30.5778 8.15522 29.5493 12.1663 29.5493 17.8982C29.5493 20.2293 29.7481 22.3617 30.1458 24.2952C30.5572 26.215 31.1262 27.7303 31.8531 28.841ZM43.5748 23.7525L43.577 23.7432C43.8267 22.6759 43.9801 20.8481 43.9801 18.145C43.9801 16.1887 43.8959 14.6014 43.7381 13.3641C43.5762 12.0949 43.3522 11.3271 43.1501 10.923L43.1451 10.9129L43.1402 10.9028C42.9116 10.4317 42.6831 10.1973 42.5071 10.0771C42.3447 9.96633 42.1299 9.88501 41.7879 9.88501C41.4309 9.88501 41.2253 9.97001 41.0826 10.0707C40.9266 10.1807 40.7143 10.404 40.5081 10.8759L40.5054 10.8821C40.0667 11.8766 39.7398 14.1037 39.7398 17.9188C39.7398 19.7909 39.8222 21.3219 39.9766 22.5293C40.1332 23.7529 40.3508 24.5333 40.5609 24.9794C40.8023 25.4686 41.0361 25.7134 41.2089 25.8357C41.3634 25.9452 41.5471 26.0142 41.8291 26.0142C42.193 26.0142 42.4618 25.9075 42.7304 25.651C42.9881 25.4043 43.327 24.8618 43.5728 23.7617L43.5748 23.7525ZM44.03 27.0103C43.4129 27.6 42.6793 27.8948 41.8291 27.8948C40.5401 27.8948 39.5528 27.1954 38.8671 25.7968C38.1952 24.3844 37.8592 21.7584 37.8592 17.9188C37.8592 14.1203 38.1678 11.5217 38.7848 10.123C39.4019 8.71061 40.403 8.0044 41.7879 8.0044C43.1455 8.0044 44.1603 8.69691 44.8322 10.0819C45.5178 11.4532 45.8607 14.1409 45.8607 18.145C45.8607 20.8739 45.7098 22.8828 45.4081 24.1718C45.1202 25.4608 44.6608 26.407 44.03 27.0103ZM60.5968 4.60855L60.601 4.60392C63.145 1.79037 66.8855 0.549561 71.4372 0.549561C73.6 0.549561 75.5166 0.816713 77.1099 1.4356C78.6008 2.00165 79.8962 2.77746 80.9365 3.79874C81.8776 4.7092 82.6464 5.7041 83.2158 6.78825C83.7838 7.83131 84.2178 9.01218 84.5345 10.3098C85.1356 12.714 85.4327 15.2107 85.4327 17.7953C85.4327 23.4021 84.4992 27.8955 82.2951 30.9163C79.9518 34.1274 76.0567 35.4937 71.2109 35.4937C68.4969 35.4937 66.1184 35.0644 64.1963 34.0697C62.3263 33.1018 60.8038 31.6846 59.6355 29.8627C58.7392 28.49 58.1061 26.7331 57.6682 24.6893L57.6665 24.6817L57.665 24.6741C57.2376 22.5959 57.0299 20.3344 57.0299 17.8982C57.0299 12.0564 58.0551 7.43841 60.5968 4.60855ZM61.2143 28.841C62.2154 30.4043 63.4975 31.5904 65.0607 32.3995C66.624 33.2085 68.674 33.613 71.2109 33.613C75.7363 33.613 78.9243 32.3446 80.7756 29.8077C82.6268 27.2709 83.5521 23.2668 83.5521 17.7953C83.5521 15.3545 83.2715 13.0096 82.7088 10.7607C82.4215 9.5814 82.0371 8.55294 81.5571 7.67529C81.0907 6.78398 80.4468 5.94065 79.6239 5.1453C78.8009 4.33625 77.738 3.68489 76.4359 3.19123C75.1327 2.68386 73.4667 2.43017 71.4372 2.43017C67.2136 2.43017 64.0666 3.57519 61.9959 5.86523C59.939 8.15522 58.9105 12.1663 58.9105 17.8982C58.9105 20.2293 59.1094 22.3617 59.507 24.2952C59.9185 26.215 60.4875 27.7303 61.2143 28.841ZM72.9361 23.7525L72.9382 23.7432C73.188 22.6759 73.3413 20.8481 73.3413 18.145C73.3413 16.1887 73.2571 14.6014 73.0993 13.3641C72.9374 12.0949 72.7134 11.3271 72.5114 10.923L72.5064 10.9129L72.5015 10.9028C72.2729 10.4317 72.0444 10.1973 71.8684 10.0771C71.706 9.96633 71.4912 9.88501 71.1492 9.88501C70.7922 9.88501 70.5866 9.97001 70.4438 10.0707C70.2879 10.1807 70.0756 10.404 69.8694 10.8759L69.8667 10.8821C69.428 11.8766 69.1011 14.1037 69.1011 17.9188C69.1011 19.7909 69.1834 21.3219 69.3379 22.5293C69.4944 23.7526 69.712 24.533 69.922 24.9792C70.1635 25.4685 70.3974 25.7134 70.5702 25.8357C70.7247 25.9452 70.9084 26.0142 71.1904 26.0142C71.5542 26.0142 71.8229 25.9076 72.0913 25.6513L72.9361 23.7525ZM68.2284 25.7968C67.5564 24.3844 67.2205 21.7584 67.2205 17.9188C67.2205 14.1203 67.5291 11.5217 68.1461 10.123C68.7632 8.71061 69.7642 8.0044 71.1492 8.0044C72.5068 8.0044 73.5215 8.69691 74.1934 10.0819C74.8791 11.4532 75.2219 14.1409 75.2219 18.145C75.2219 20.8739 75.0711 22.8828 74.7694 24.1718C74.4814 25.4608 74.022 26.407 73.3912 27.0103C72.7742 27.6 72.0406 27.8948 71.1904 27.8948C69.9013 27.8948 68.914 27.1954 68.2284 25.7968ZM72.9361 23.7525L72.934 23.7617L72.9361 23.7525ZM113.067 0.549561H121.684L111.65 19.1023C112.097 18.7237 112.59 18.3883 113.127 18.097C114.71 17.2362 116.511 16.8403 118.467 16.8403C121.377 16.8403 123.894 17.6853 125.779 19.5678C127.649 21.4214 128.514 23.854 128.514 26.6607C128.514 29.469 127.648 31.9052 125.783 33.7704L125.776 33.7767C123.89 35.6449 121.374 36.481 118.467 36.481C116.511 36.481 114.71 36.0851 113.127 35.2243C111.533 34.3579 110.315 33.1057 109.534 31.4903L109.53 31.4831C108.805 29.9656 108.442 28.3509 108.442 26.6607C108.442 26.0048 108.496 25.3609 108.606 24.7305L102.228 36.5221H93.6562L103.836 17.6561C101.976 19.3889 99.5418 20.1696 96.7464 20.1696C94.7853 20.1696 92.9815 19.7841 91.3987 18.941L91.3882 18.9352L91.3769 18.9293C89.795 18.0598 88.5861 16.8015 87.7962 15.1866L87.7925 15.1792L87.7887 15.1717C87.0628 13.6542 86.6995 12.0397 86.6995 10.3493C86.6995 8.66983 87.0643 7.06245 87.7887 5.54749L87.7925 5.54001L87.7962 5.53257C88.5869 3.91568 89.7987 2.66113 91.3875 1.80474C92.9732 0.943873 94.7801 0.549561 96.7464 0.549561C99.6426 0.549561 102.151 1.38754 104.035 3.25386C105.907 5.10776 106.772 7.54139 106.772 10.3493C106.772 11.1238 106.707 11.8699 106.574 12.5832L113.067 0.549561ZM92.2826 3.45863C91.0347 4.13056 90.1026 5.09731 89.485 6.35888C88.8817 7.62045 88.5801 8.95057 88.5801 10.3493C88.5801 11.7617 88.8817 13.0987 89.485 14.3603C90.1026 15.6218 91.0347 16.5955 92.2826 17.2811C93.5441 17.9531 95.0321 18.289 96.7464 18.289C99.2695 18.289 101.258 17.5691 102.712 16.1292C104.165 14.6894 104.892 12.7627 104.892 10.3493C104.892 7.94956 104.165 6.02977 102.712 4.58993C101.258 3.15009 99.2695 2.43017 96.7464 2.43017C95.0321 2.43017 93.5441 2.77299 92.2826 3.45863ZM111.227 22.6702C110.624 23.9181 110.322 25.2482 110.322 26.6607C110.322 28.0731 110.624 29.4101 111.227 30.6716C111.83 31.9195 112.763 32.8862 114.025 33.5719C115.286 34.2576 116.767 34.6004 118.467 34.6004C121.004 34.6004 123 33.8805 124.453 32.4406C125.906 30.987 126.633 29.0604 126.633 26.6607C126.633 24.2609 125.906 22.3411 124.453 20.9013C123 19.4478 121.004 18.7209 118.467 18.7209C116.767 18.7209 115.286 19.0637 114.025 19.7494C112.763 20.4351 111.83 21.4086 111.227 22.6702ZM96.6938 12.9716C96.7081 12.9726 96.7254 12.9733 96.7464 12.9733C96.7577 12.9733 96.7683 12.9731 96.7773 12.9727C96.9759 12.6724 97.2309 11.9254 97.2309 10.3904C97.2309 8.925 96.9947 8.16749 96.7893 7.82913C96.7765 7.82852 96.7622 7.82807 96.7464 7.82807C96.7194 7.82807 96.6976 7.82928 96.6803 7.83071C96.4839 8.14522 96.2409 8.89272 96.2409 10.3904C96.2409 11.9234 96.4952 12.6704 96.6938 12.9716ZM95.1833 6.68799C95.5398 6.19433 96.0604 5.9475 96.7464 5.9475C97.4317 5.9475 97.9463 6.19433 98.2893 6.68799C98.8377 7.46962 99.1115 8.70376 99.1115 10.3904C99.1115 12.0908 98.8377 13.3249 98.2893 14.0929C97.9463 14.6003 97.4317 14.854 96.7464 14.854C96.0604 14.854 95.5398 14.6003 95.1833 14.0929C94.6349 13.3249 94.3603 12.0908 94.3603 10.3904C94.3603 8.69007 94.6349 7.45591 95.1833 6.68799ZM118.423 29.263C118.226 28.9494 117.982 28.2019 117.982 26.7018C117.982 25.1669 118.238 24.4199 118.437 24.1195C118.446 24.1191 118.456 24.1189 118.467 24.1189C118.494 24.1189 118.515 24.12 118.531 24.1214C118.736 24.4597 118.973 25.2223 118.973 26.7018C118.973 28.1995 118.73 28.947 118.534 29.2615C118.516 29.263 118.495 29.2641 118.467 29.2641C118.45 29.2641 118.436 29.2636 118.423 29.263ZM120.031 30.4043C119.674 30.8979 119.153 31.1447 118.467 31.1447C117.781 31.1447 117.268 30.8979 116.925 30.4043C116.376 29.6363 116.102 28.4022 116.102 26.7018C116.102 25.0014 116.376 23.7673 116.925 22.9993C117.268 22.4919 117.781 22.2383 118.467 22.2383C119.153 22.2383 119.674 22.4851 120.031 22.9788C120.579 23.7604 120.854 25.0014 120.854 26.7018C120.854 28.4022 120.579 29.6363 120.031 30.4043ZM72.934 23.7617C72.6884 24.8614 72.3497 25.4039 72.092 25.6507L72.934 23.7617ZM114.189 2.43017H118.529L101.107 34.6415H96.8081L114.189 2.43017Z" fill="white"/>
</g>
<defs>
<clipPath id="clip0">
<rect width="128.634" height="36.86" fill="white"/>
</clipPath>
</defs>
</svg>
