<svg width="62" height="53" viewBox="0 0 62 53" fill="none" xmlns="http://www.w3.org/2000/svg">
<g clip-path="url(#clip0)">
<path d="M61.3671 12.5863C60.3237 7.13105 57.1422 3.30766 52.1029 1.14635C49.0978 -0.142209 45.9581 -0.300559 42.7861 0.453723C39.9587 1.12701 37.5488 2.56668 35.5001 4.63853C33.9535 6.20149 32.4116 7.77171 30.8519 9.35518C29.2766 7.75839 27.7431 6.16644 26.1702 4.61678C22.272 0.777678 17.6131 -0.6777 12.2875 0.326801C8.40607 1.05812 5.28058 3.15173 2.95288 6.37677C0.338985 10.0007 -0.511245 14.0731 0.287709 18.4779C0.861287 21.6389 2.35426 24.3236 4.59133 26.5913C12.9899 35.1035 21.3885 43.617 29.787 52.1293C30.4798 52.8316 31.1988 52.8352 31.8857 52.1377C40.2772 43.6328 48.6841 35.1435 57.0516 26.6154C60.8771 22.7183 62.401 17.9956 61.3671 12.5863ZM56.4423 23.4049C56.0964 23.8691 55.7112 24.3091 55.3058 24.7213C47.2209 32.9241 39.13 41.1221 31.0415 49.3213C30.9795 49.3841 30.9139 49.4434 30.8208 49.534C30.7458 49.4421 30.6814 49.3503 30.605 49.2729C22.5367 41.0931 14.4698 32.9144 6.39911 24.7382C4.39815 22.7111 3.11386 20.3032 2.71558 17.4565C2.18373 13.6512 3.09955 10.2267 5.53219 7.25918C7.40436 4.97579 9.77741 3.46722 12.6584 2.90393C17.1623 2.02273 21.0927 3.21217 24.3755 6.48314C26.1953 8.29632 27.9876 10.1385 29.7918 11.9674C30.4822 12.6661 31.2025 12.6661 31.8917 11.9674C33.8247 10.0116 35.7255 8.02311 37.6979 6.10963C39.7167 4.15018 42.1481 3.01272 44.9385 2.70811C47.6406 2.41316 50.2092 2.87129 52.5799 4.24206C55.7065 6.04919 57.8005 8.71337 58.6841 12.2563C59.6977 16.313 58.944 20.053 56.4423 23.4049Z" fill="white"/>
<path d="M47.4351 16.57V14.1645H49.8713C50.297 14.1645 50.6428 13.8164 50.6464 13.3849H48.9053V12.5931H47.4351V10.1876C47.4351 9.89389 47.2764 9.63888 47.0415 9.50348C46.9044 9.68236 46.8221 9.90721 46.8221 10.1514V13.3849H43.7157C43.389 13.3849 43.098 13.5372 42.9072 13.7765C43.042 14.0086 43.29 14.1645 43.575 14.1645H45.8848V15.4978H46.8209V17.3388C47.1715 17.2639 47.4351 16.9484 47.4351 16.57Z" fill="white"/>
<path d="M47.4355 10.1889V12.5943H48.9058V10.1526C48.9058 9.5687 48.4395 9.09607 47.8636 9.09607C47.5297 9.09607 47.2328 9.2569 47.042 9.50469C47.2757 9.64009 47.4355 9.8951 47.4355 10.1889Z" fill="white"/>
<path d="M43.5752 14.1646C43.2901 14.1646 43.0421 14.0086 42.9074 13.7766C42.7619 13.9578 42.6748 14.1899 42.6748 14.4414C42.6748 15.0252 43.1411 15.4978 43.717 15.4978H45.8849V14.1646H43.5752Z" fill="white"/>
<path d="M52.1792 13.3848H50.6457C50.6422 13.8164 50.2976 14.1645 49.8707 14.1645H47.4344V16.57C47.4344 16.9484 47.1709 17.2638 46.8203 17.3388V18.7313C46.8203 19.3151 47.2866 19.7878 47.8625 19.7878C48.4385 19.7878 48.9047 19.3151 48.9047 18.7313V15.4978H52.1792C52.7552 15.4978 53.2215 15.0252 53.2215 14.4414C53.2215 13.8575 52.7552 13.3848 52.1792 13.3848Z" fill="white"/>
</g>
<defs>
<clipPath id="clip0">
<rect width="61.684" height="52.6571" fill="white"/>
</clipPath>
</defs>
</svg>
