<svg width="82" height="63" viewBox="0 0 82 63" fill="none" xmlns="http://www.w3.org/2000/svg">
<path fill-rule="evenodd" clip-rule="evenodd" d="M47.8967 39.1166L59.8681 51.0879L61.9958 48.9603L52.1521 39.1166H47.8967ZM32.0996 23.3194H36.355L21.7507 8.71521L19.623 10.8429L32.0996 23.3194Z" fill="white"/>
<path d="M41.3734 58.675C57.1606 58.675 69.9586 45.8769 69.9586 30.0897C69.9586 14.3025 57.1606 1.50439 41.3734 1.50439C25.5862 1.50439 12.7881 14.3025 12.7881 30.0897C12.7881 45.8769 25.5862 58.675 41.3734 58.675Z" stroke="white" stroke-width="3.00898"/>
<path d="M30.3131 32.544V30.9109H34.5312V34.7721C34.1213 35.1688 33.5263 35.5192 32.746 35.8233C31.9703 36.123 31.1836 36.2729 30.3858 36.2729C29.372 36.2729 28.4883 36.0613 27.7345 35.6382C26.9808 35.2106 26.4145 34.6024 26.0354 33.8134C25.6563 33.02 25.4668 32.1583 25.4668 31.2283C25.4668 30.219 25.6783 29.322 26.1015 28.5374C26.5246 27.7529 27.1439 27.1512 27.9594 26.7325C28.5808 26.4107 29.3544 26.2498 30.28 26.2498C31.4832 26.2498 32.4221 26.5032 33.0965 27.0101C33.7753 27.5126 34.2116 28.209 34.4056 29.0994L32.4618 29.463C32.3252 28.987 32.0673 28.6123 31.6882 28.3391C31.3136 28.0614 30.8441 27.9225 30.28 27.9225C29.4249 27.9225 28.7439 28.1936 28.237 28.7358C27.7345 29.2779 27.4833 30.0823 27.4833 31.149C27.4833 32.2994 27.7389 33.1632 28.2503 33.7407C28.7616 34.3136 29.4315 34.6002 30.2602 34.6002C30.6701 34.6002 31.08 34.5208 31.4899 34.3622C31.9042 34.1991 32.259 34.0029 32.5544 33.7738V32.544H30.3131ZM36.3163 36.1076V26.4151H39.2452L41.0039 33.0266L42.7427 26.4151H45.6782V36.1076H43.8601V28.4779L41.9361 36.1076H40.0518L38.1344 28.4779V36.1076H36.3163ZM47.2253 31.3208C47.2253 30.3335 47.373 29.5049 47.6683 28.8349C47.8886 28.3413 48.1884 27.8983 48.5675 27.506C48.9509 27.1137 49.3697 26.8228 49.8236 26.6333C50.4275 26.3776 51.1239 26.2498 51.9128 26.2498C53.341 26.2498 54.4826 26.6928 55.3377 27.5787C56.1972 28.4647 56.6269 29.6966 56.6269 31.2746C56.6269 32.8393 56.2015 34.0647 55.3509 34.9506C54.5002 35.8321 53.363 36.2729 51.9393 36.2729C50.498 36.2729 49.352 35.8343 48.5013 34.9572C47.6506 34.0756 47.2253 32.8635 47.2253 31.3208ZM49.2418 31.2547C49.2418 32.3522 49.4953 33.1853 50.0021 33.7539C50.509 34.3181 51.1526 34.6002 51.9327 34.6002C52.7129 34.6002 53.352 34.3203 53.85 33.7605C54.3525 33.1963 54.6038 32.3522 54.6038 31.2283C54.6038 30.1176 54.3591 29.2889 53.8699 28.7424C53.3851 28.1958 52.7393 27.9225 51.9327 27.9225C51.1261 27.9225 50.476 28.2002 49.9823 28.7556C49.4887 29.3066 49.2418 30.1396 49.2418 31.2547Z" fill="white"/>
</svg>
