<svg width="37" height="55" viewBox="0 0 37 55" fill="none" xmlns="http://www.w3.org/2000/svg">
<g clip-path="url(#clip0)">
<path d="M33.5898 26.8925C28.499 18.0737 23.4081 9.25494 18.316 0.436162C18.2373 0.300467 18.1532 0.168926 18.0483 0C17.9669 0.128771 17.9034 0.220158 17.8482 0.315698C12.7478 9.14142 7.64034 17.9643 2.54676 26.7942C0.409708 30.4994 -0.437386 34.4762 0.21518 38.727C0.858088 42.9114 2.72059 46.4713 5.79855 49.3749C7.36168 50.8495 9.1428 52.0029 11.1295 52.8074C13.8667 53.9151 16.7142 54.3527 19.6611 54.0855C21.9954 53.8736 24.2194 53.2629 26.3013 52.1774C29.3806 50.5712 31.7991 48.2589 33.5691 45.2542C35.0509 42.7369 35.9035 40.0244 36.0759 37.1139C36.2911 33.4598 35.4151 30.055 33.5898 26.8925ZM33.0477 38.0457C32.6628 40.9687 31.5149 43.5829 29.6234 45.844C26.9635 49.0232 23.5586 50.8218 19.4403 51.1832C14.842 51.5861 10.8204 50.2057 7.4955 46.9767C5.10736 44.6574 3.65046 41.8078 3.10689 38.5096C2.5095 34.8888 3.18691 31.4923 5.00802 28.3297C9.2849 20.9025 13.5783 13.485 17.8662 6.06334C17.9158 5.97749 17.9738 5.89718 18.0566 5.77256C18.2098 6.03565 18.3421 6.25996 18.4718 6.48427C22.6632 13.7481 26.8573 21.0119 31.0458 28.2772C32.7938 31.3095 33.5043 34.5689 33.0477 38.0457Z" fill="white"/>
<path d="M29.1553 35.779C29.1416 35.779 29.1264 35.779 29.1126 35.779C28.4103 35.779 27.8282 36.3398 27.8033 37.0501C27.7923 37.3769 27.4212 45.0658 19.0717 45.6751C18.3501 45.7276 17.8065 46.3577 17.859 47.0818C17.9086 47.7741 18.4839 48.3017 19.164 48.3017C19.1958 48.3017 19.2275 48.3003 19.2606 48.2975C24.8564 47.8891 27.6047 44.8623 28.9236 42.3962C30.3308 39.7668 30.4177 37.2356 30.4218 37.1304C30.4439 36.4049 29.8769 35.8012 29.1553 35.779Z" fill="white"/>
</g>
<defs>
<clipPath id="clip0">
<rect width="36.1077" height="54.1616" fill="white"/>
</clipPath>
</defs>
</svg>
