<svg width="172" height="40" viewBox="0 0 172 40" fill="none" xmlns="http://www.w3.org/2000/svg">
<path d="M53.5173 24.866C52.8042 24.866 52.164 25.0551 51.5965 25.4408C51.029 25.8227 50.5306 26.3975 50.1013 27.1615V25.2152H44.3389V27.056H45.2483C45.8704 27.056 46.2851 27.1506 46.4889 27.3434C46.6926 27.5362 46.7944 27.98 46.7944 28.6858V34.6483C46.7944 35.3504 46.6926 35.8015 46.4889 35.9943C46.2851 36.1907 45.8704 36.289 45.2483 36.289H44.3389V38.1152H53.0225V36.289H51.6619C51.0399 36.289 50.6252 36.1907 50.4142 35.9943C50.2068 35.7978 50.1013 35.3467 50.1013 34.6483V31.1814C50.1013 29.7589 50.4032 28.5912 51.0071 27.6781C51.611 26.7649 52.3677 26.3102 53.2735 26.3102C53.4336 26.3102 53.6082 26.3357 53.801 26.383C53.9902 26.4303 54.1903 26.4994 54.394 26.5903C53.852 26.7431 53.4372 26.9759 53.1535 27.2924C52.8697 27.6089 52.7279 27.9909 52.7279 28.4457C52.7279 28.944 52.8988 29.3515 53.2481 29.6643C53.5937 29.9808 54.0484 30.1409 54.6086 30.1409C55.2671 30.1409 55.8019 29.9226 56.2093 29.4934C56.6168 29.0641 56.8241 28.5039 56.8241 27.8199C56.8241 26.9505 56.5149 26.2411 55.9037 25.6918C55.2926 25.1388 54.4959 24.866 53.5173 24.866Z" fill="white"/>
<path d="M34.3704 30.0032C34.5304 28.8754 34.8615 28.0169 35.3635 27.4348C35.8656 26.8528 36.5167 26.5617 37.3171 26.5617C38.0992 26.5617 38.6922 26.8382 39.0996 27.3875C39.5034 27.9368 39.7472 28.8099 39.8272 30.0032H34.3704ZM41.8826 26.569C40.8422 25.3394 39.3325 24.7209 37.3498 24.7209C35.2944 24.7209 33.6428 25.3576 32.395 26.6345C31.1472 27.9114 30.5215 29.5884 30.5215 31.6693C30.5215 33.7793 31.1399 35.46 32.3768 36.7187C33.6137 37.9774 35.2726 38.6068 37.3535 38.6068C39.0269 38.6068 40.3984 38.1521 41.4679 37.2389C42.5411 36.3295 43.1741 35.0817 43.3705 33.4992H41.075C40.8531 34.5469 40.4711 35.2963 39.9327 35.7438C39.3943 36.1949 38.6012 36.4168 37.5535 36.4168C36.5313 36.4168 35.7382 36.0348 35.1744 35.2708C34.6105 34.5069 34.3013 33.3937 34.2467 31.9349H43.4506C43.4396 29.5885 42.9194 27.7986 41.8826 26.569Z" fill="white"/>
<path d="M138.501 23.6403C139.079 23.6403 139.567 23.4403 139.96 23.0401C140.356 22.6399 140.553 22.1561 140.553 21.5886C140.553 21.0211 140.356 20.5408 139.96 20.148C139.563 19.7587 139.076 19.5623 138.501 19.5623C137.93 19.5623 137.453 19.7587 137.067 20.148C136.682 20.5408 136.485 21.0211 136.485 21.5886C136.485 22.1561 136.682 22.6436 137.075 23.0401C137.464 23.4403 137.941 23.6403 138.501 23.6403Z" fill="white"/>
<path d="M62.0157 23.6403C62.5941 23.6403 63.0816 23.4403 63.4781 23.0401C63.8746 22.6399 64.0711 22.1561 64.0711 21.5886C64.0711 21.0211 63.8746 20.5408 63.4781 20.148C63.0816 19.7587 62.5941 19.5623 62.0157 19.5623C61.4482 19.5623 60.9679 19.7587 60.5823 20.148C60.1931 20.5408 60.0039 21.0211 60.0039 21.5886C60.0039 22.1561 60.2004 22.6436 60.5896 23.0401C60.9789 23.4403 61.4554 23.6403 62.0157 23.6403Z" fill="white"/>
<path d="M8.36352 29.148C8.36352 29.7264 8.54178 30.1848 8.89829 30.5304C9.2548 30.8724 9.72773 31.0433 10.3243 31.0433C10.9901 31.0433 11.5212 30.8323 11.9177 30.4103C12.3143 29.9884 12.5107 29.4208 12.5107 28.7078C12.5107 27.5582 12.0087 26.6087 11.0046 25.8521C10.0006 25.0954 8.70912 24.717 7.13755 24.717C5.0203 24.717 3.30321 25.3609 1.98265 26.6488C0.662097 27.9439 0 29.6173 0 31.6691C0 33.7863 0.592977 35.467 1.78257 36.7112C2.96852 37.9553 4.58011 38.5811 6.61733 38.5811C8.43992 38.5811 9.83323 38.0936 10.7936 37.1186C11.754 36.1437 12.2815 34.6958 12.3798 32.7641H10.2734C10.1425 33.9027 9.81504 34.7431 9.3021 35.2924C8.78552 35.8381 8.06521 36.1146 7.14119 36.1146C6.00253 36.1146 5.15126 35.7435 4.58011 35.0014C4.0126 34.2592 3.7252 33.1388 3.7252 31.6472C3.7252 30.0393 4.03806 28.7842 4.66378 27.8856C5.2895 26.9871 6.15896 26.5396 7.27215 26.5396C7.79601 26.5396 8.27257 26.616 8.69821 26.7725C9.12384 26.9289 9.5422 27.1763 9.95328 27.5146C9.48035 27.5692 9.09838 27.7474 8.80734 28.0566C8.50904 28.3549 8.36352 28.7224 8.36352 29.148Z" fill="white"/>
<path d="M64.2481 35.9835C64.0408 35.7834 63.9353 35.336 63.9353 34.6448V25.2153H58.0273V27.0561H59.0387C59.6608 27.0561 60.0755 27.1507 60.2865 27.3435C60.4938 27.5363 60.5993 27.9801 60.5993 28.6859V34.6484C60.5993 35.3505 60.4938 35.798 60.2865 35.9944C60.0791 36.1909 59.6608 36.2891 59.0387 36.2891H58.0273V38.1153H66.3363V36.2891H65.5105C64.8775 36.2854 64.4555 36.1836 64.2481 35.9835Z" fill="white"/>
<path d="M27.9029 35.9835C27.6882 35.7834 27.5827 35.3359 27.5827 34.6447V29.5626C27.5827 27.8564 27.2626 26.6377 26.6151 25.9065C25.9712 25.1789 24.9089 24.8115 23.4355 24.8115C22.6534 24.8115 21.8822 25.0371 21.1218 25.4845C20.3615 25.9356 19.6303 26.5977 18.9282 27.4781V19.7839H13.3477V21.6102H14.0534C14.6864 21.6102 15.1084 21.712 15.3194 21.9085C15.5377 22.1122 15.6432 22.5596 15.6432 23.2545V34.6447C15.6432 35.3396 15.5377 35.7834 15.323 35.9835C15.1084 36.1836 14.6864 36.2854 14.057 36.2854H13.3513V38.1116H21.06V36.2854H20.5143C19.8813 36.2854 19.4593 36.1836 19.2483 35.9835C19.0337 35.7834 18.9282 35.3359 18.9282 34.6447V31.4179C18.9282 30.0064 19.2265 28.9005 19.8231 28.1038C20.4197 27.3071 21.2419 26.9106 22.2896 26.9106C22.999 26.9106 23.5156 27.1143 23.8284 27.5254C24.1449 27.9328 24.3014 28.6167 24.3014 29.5662V34.6484C24.3014 35.3432 24.1959 35.787 23.9885 35.9871C23.7811 36.1872 23.3591 36.2891 22.7261 36.2891H22.1805V38.1153H29.9292V36.2891H29.1689C28.5359 36.2854 28.1139 36.1836 27.9029 35.9835Z" fill="white"/>
<path d="M77.021 35.165C76.5117 35.9289 75.7296 36.3109 74.6819 36.3109C73.7215 36.3109 72.9648 35.9034 72.4082 35.0849C71.8516 34.2664 71.5751 33.1386 71.5751 31.698C71.5751 30.2574 71.8516 29.1333 72.4009 28.3257C72.9539 27.5145 73.7105 27.1107 74.6819 27.1107C75.7296 27.1107 76.5117 27.489 77.021 28.2457C77.534 29.0024 77.7886 30.1519 77.7886 31.698C77.7886 33.2441 77.534 34.3974 77.021 35.165ZM76.017 24.7206C74.9947 24.7206 74.1253 24.9206 73.4086 25.3281C72.6919 25.7319 72.0808 26.3722 71.5751 27.2416V19.7839H66.1328V21.6102H66.7076C67.3406 21.6102 67.7553 21.7084 67.9627 21.9048C68.1664 22.1013 68.2683 22.5487 68.2683 23.2508V38.2426H70.069L71.164 36.4419C71.8043 37.1731 72.5137 37.7078 73.2958 38.0571C74.078 38.4027 74.9584 38.5773 75.9369 38.5773C77.6431 38.5773 79 37.9479 80.0041 36.6965C81.0082 35.4414 81.5102 33.7498 81.5102 31.6144C81.5102 29.4826 81.0154 27.7982 80.0296 26.565C79.0437 25.3354 77.705 24.7206 76.017 24.7206Z" fill="white"/>
<path d="M96.8924 35.9835C96.6778 35.7834 96.5723 35.336 96.5723 34.6448V25.2153H90.4497V27.0561H91.7048C92.3451 27.0561 92.7707 27.1543 92.9781 27.3508C93.1891 27.5472 93.2909 27.991 93.2909 28.6859V32.0182C93.2909 33.3897 92.989 34.4629 92.3851 35.245C91.7812 36.0272 90.9627 36.42 89.9295 36.42C89.2201 36.42 88.7035 36.2163 88.3907 35.8089C88.0742 35.3978 87.9178 34.7211 87.9178 33.768V25.219H82.4209V27.0597H83.0466C83.6796 27.0597 84.1016 27.158 84.3126 27.3544C84.5272 27.5509 84.6327 27.9947 84.6327 28.6895V33.7717C84.6327 35.4887 84.9565 36.7111 85.6004 37.4423C86.2443 38.1699 87.3066 38.5373 88.7836 38.5373C89.5657 38.5373 90.337 38.3118 91.0973 37.857C91.8576 37.4059 92.5888 36.7365 93.2909 35.8562V38.1226H98.8642V36.2964H98.1584C97.5291 36.2854 97.1034 36.1836 96.8924 35.9835Z" fill="white"/>
<path d="M114.848 35.991C114.637 35.7946 114.535 35.3435 114.535 34.645V29.5629C114.535 27.8567 114.211 26.638 113.564 25.9068C112.912 25.1792 111.846 24.8118 110.362 24.8118C109.591 24.8118 108.827 25.0337 108.078 25.4775C107.325 25.9213 106.593 26.5907 105.884 27.4783V25.2119H100.114V27.0527H101.02C101.642 27.0527 102.057 27.1473 102.261 27.3401C102.464 27.5329 102.566 27.9767 102.566 28.6825V34.645C102.566 35.3471 102.464 35.7946 102.261 35.991C102.057 36.1875 101.642 36.2857 101.02 36.2857H100.114V38.1119H107.983V36.2857H107.437C106.815 36.2857 106.397 36.1875 106.19 35.991C105.982 35.7946 105.877 35.3435 105.877 34.645V31.3127C105.877 29.9412 106.175 28.868 106.772 28.0822C107.368 27.3001 108.179 26.9072 109.213 26.9072C109.933 26.9072 110.45 27.1109 110.766 27.522C111.083 27.9294 111.243 28.6134 111.243 29.5629V34.645C111.243 35.3471 111.137 35.7946 110.926 35.991C110.719 36.1875 110.3 36.2857 109.678 36.2857H109.129V38.1119H116.892V36.2857H116.092C115.47 36.2857 115.055 36.1875 114.848 35.991Z" fill="white"/>
<path d="M140.735 35.9835C140.528 35.7834 140.423 35.336 140.423 34.6448V25.2153H134.515V27.0561H135.526C136.148 27.0561 136.566 27.1507 136.774 27.3435C136.981 27.5363 137.087 27.9801 137.087 28.6859V34.6484C137.087 35.3505 136.981 35.798 136.774 35.9944C136.566 36.1909 136.148 36.2891 135.526 36.2891H134.515V38.1153H142.824V36.2891H141.998C141.365 36.2854 140.943 36.1836 140.735 35.9835Z" fill="white"/>
<path d="M126.81 35.0849C126.254 35.9034 125.497 36.3109 124.537 36.3109C123.489 36.3109 122.707 35.9289 122.19 35.165C121.674 34.401 121.419 33.2441 121.419 31.698C121.419 30.1519 121.674 28.9987 122.187 28.2457C122.696 27.489 123.482 27.1107 124.54 27.1107C125.501 27.1107 126.257 27.5145 126.814 28.3257C127.367 29.1333 127.647 30.2574 127.647 31.698C127.643 33.135 127.367 34.2664 126.81 35.0849ZM131.267 35.9908C131.056 35.7943 130.954 35.3432 130.954 34.6447V19.7839H124.94V21.6102H126.086C126.708 21.6102 127.123 21.7084 127.334 21.9048C127.541 22.1013 127.647 22.5487 127.647 23.2508V27.3726C127.192 26.4667 126.61 25.7974 125.894 25.3645C125.177 24.9316 124.293 24.7169 123.245 24.7169C121.503 24.7169 120.146 25.3208 119.171 26.5322C118.199 27.74 117.712 29.4353 117.712 31.6144C117.712 33.7935 118.199 35.4851 119.171 36.6892C120.146 37.8934 121.503 38.4973 123.245 38.4973C124.304 38.4973 125.191 38.2826 125.908 37.857C126.625 37.4314 127.203 36.7693 127.647 35.8707V38.1116H133.3V36.2854H132.515C131.889 36.2854 131.474 36.1872 131.267 35.9908Z" fill="white"/>
<path d="M170.18 37.1225C170.165 37.1225 170.154 37.1225 170.143 37.1225C170.136 37.1225 170.125 37.1225 170.118 37.1188V36.7332C170.118 36.7005 170.129 36.6786 170.143 36.6605C170.161 36.6459 170.187 36.635 170.227 36.635C170.289 36.635 170.34 36.6568 170.376 36.6968C170.416 36.7405 170.434 36.7914 170.434 36.8533C170.434 36.9406 170.412 37.0061 170.369 37.0497C170.329 37.1006 170.263 37.1225 170.18 37.1225ZM170.918 37.5081H170.834V37.5263C170.834 37.5845 170.827 37.6281 170.813 37.6609C170.798 37.6936 170.78 37.7082 170.754 37.7082C170.733 37.7082 170.714 37.6973 170.703 37.6791C170.693 37.6609 170.689 37.6245 170.689 37.5772C170.689 37.4681 170.66 37.3808 170.602 37.3153C170.543 37.2498 170.456 37.2061 170.34 37.1843C170.489 37.1588 170.594 37.1225 170.66 37.0715C170.725 37.0206 170.758 36.9515 170.758 36.8642C170.758 36.7732 170.711 36.7005 170.623 36.6423C170.536 36.5841 170.412 36.5586 170.263 36.5586H169.648V36.6423C169.71 36.6495 169.75 36.6641 169.768 36.6823C169.787 36.7005 169.798 36.7332 169.798 36.7805V37.5736C169.798 37.6209 169.787 37.6536 169.768 37.6718C169.747 37.69 169.71 37.7045 169.652 37.7082V37.7955H170.252V37.7082C170.201 37.7009 170.165 37.6863 170.147 37.6681C170.129 37.65 170.118 37.6172 170.118 37.5736V37.2061H170.143C170.209 37.2061 170.26 37.2243 170.296 37.2643C170.332 37.3007 170.354 37.3662 170.369 37.4535C170.372 37.4753 170.372 37.5081 170.376 37.5517C170.38 37.65 170.398 37.7154 170.431 37.7518C170.452 37.7773 170.478 37.7918 170.514 37.8064C170.551 37.8209 170.591 37.8246 170.634 37.8246C170.729 37.8246 170.802 37.8028 170.849 37.7555C170.896 37.7118 170.922 37.6427 170.922 37.5517C170.922 37.5481 170.922 37.5408 170.922 37.5299C170.918 37.519 170.918 37.5117 170.918 37.5081Z" fill="white"/>
<path d="M171.104 37.5555C171.053 37.6756 170.984 37.7774 170.897 37.872C170.81 37.9629 170.704 38.0321 170.591 38.0794C170.475 38.1267 170.355 38.1521 170.224 38.1521C170.097 38.1521 169.973 38.1303 169.86 38.083C169.747 38.0357 169.642 37.9666 169.547 37.8756C169.456 37.7847 169.387 37.6828 169.34 37.5664C169.293 37.45 169.271 37.3263 169.271 37.1954C169.271 37.068 169.293 36.9443 169.34 36.8279C169.387 36.7115 169.456 36.606 169.544 36.5151C169.631 36.4241 169.737 36.355 169.853 36.3041C169.973 36.2531 170.097 36.2313 170.224 36.2313C170.348 36.2313 170.468 36.2568 170.584 36.3041C170.701 36.355 170.802 36.4241 170.893 36.5114C170.984 36.5987 171.053 36.7042 171.101 36.8243C171.152 36.9443 171.177 37.068 171.177 37.1954C171.181 37.319 171.155 37.4391 171.104 37.5555ZM171.275 36.7734C171.221 36.6351 171.144 36.5114 171.046 36.4096C170.941 36.3004 170.817 36.2131 170.675 36.1549C170.533 36.0931 170.384 36.064 170.235 36.064C170.086 36.064 169.94 36.0931 169.798 36.1513C169.66 36.2095 169.536 36.2932 169.431 36.3987C169.325 36.5041 169.242 36.6278 169.187 36.7624C169.129 36.9007 169.104 37.0426 169.104 37.1917C169.104 37.3845 169.147 37.5591 169.238 37.7265C169.325 37.8902 169.453 38.0284 169.613 38.1339C169.707 38.1958 169.809 38.2394 169.915 38.2722C170.02 38.3049 170.129 38.3195 170.239 38.3195C170.384 38.3195 170.519 38.294 170.653 38.2394C170.784 38.1885 170.904 38.1121 171.006 38.0139C171.119 37.9047 171.21 37.7811 171.272 37.6392C171.337 37.4973 171.366 37.3554 171.366 37.2135C171.355 37.0607 171.326 36.9116 171.275 36.7734Z" fill="white"/>
<path d="M159.046 38.0537C154.287 38.0537 150.417 34.183 150.417 29.4246C150.417 24.9973 153.771 21.3449 158.067 20.8574V24.0442C157.714 23.8623 157.416 23.5822 157.205 23.2184C156.936 22.7527 156.339 22.5927 155.873 22.8619C155.408 23.1311 155.251 23.7277 155.521 24.1933C156.244 25.4484 157.598 26.2269 159.046 26.2269C160.494 26.2269 161.843 25.4484 162.567 24.1933C162.836 23.7277 162.676 23.1311 162.211 22.8619C161.745 22.5963 161.148 22.7527 160.879 23.2184C160.675 23.5749 160.37 23.855 160.017 24.0369V20.8501C164.317 21.334 167.667 24.99 167.667 29.4174C167.671 34.183 163.8 38.0537 159.046 38.0537ZM153.24 6.92426H147.543C146.022 6.92426 144.847 6.49863 144.047 5.66555C143.443 5.03255 143.024 4.11944 142.824 3.03899C143.89 3.63196 145.436 4.17401 147.539 4.17401H153.24C154.866 4.17401 156.084 4.57054 156.859 5.35269C157.529 6.0257 157.834 6.9279 157.972 7.80827C156.965 7.30988 155.466 6.92426 153.24 6.92426ZM153.138 10.3693C153.138 10.3693 151.566 11.0933 148.558 12.4793C147.841 12.8104 147.161 12.9777 146.542 12.9777C145.222 12.9777 144.261 12.1919 143.606 11.3334C144.858 11.388 146.273 11.0969 147.63 10.4748C147.63 10.4748 148.907 9.8855 151.104 8.87053H153.24C154.804 8.87053 155.873 9.07789 156.605 9.33982C155.582 9.43441 154.418 9.78001 153.138 10.3693ZM160.017 18.9002L160.024 9.89642C160.035 8.47036 160.061 5.81106 158.242 3.9812C157.085 2.81708 155.404 2.22774 153.236 2.22774H147.539C143.999 2.22774 142.562 0.426978 142.508 0.357858C142.264 0.0304478 141.835 -0.0714133 141.438 0.0486373C141.042 0.168688 140.765 0.56158 140.747 0.972663C140.682 2.42418 140.838 5.13441 142.631 7.01157C143.617 8.04473 144.931 8.64862 146.546 8.82324C145.647 9.20522 144.76 9.39803 143.916 9.39803C142.824 9.39803 142.177 9.07062 142.177 9.07062C141.817 8.87417 141.384 8.95784 141.074 9.23068C140.765 9.50716 140.678 9.97645 140.838 10.3584C141.398 11.7336 143.079 14.9313 146.539 14.9313C147.441 14.9313 148.394 14.7021 149.369 14.251C153.582 12.3083 153.92 12.1556 153.949 12.141C155.215 11.5589 156.295 11.2606 157.161 11.2606C157.601 11.2606 157.892 11.337 158.067 11.4098V18.9002C152.69 19.395 148.467 23.9241 148.467 29.4246C148.467 35.2598 153.21 40 159.046 40C164.877 40 169.617 35.2562 169.617 29.4246C169.621 23.9205 165.394 19.3913 160.017 18.9002Z" fill="white"/>
</svg>
